<svg version="1" xmlns="http://www.w3.org/2000/svg" width="1440" height="1440" viewBox="0 0 1080.000000 1080.000000"><path d="M512 29.6c-29.7 4.7-55.1 13.6-106 37.1-43.2 20-58.5 26.4-91.5 38.5-48.2 17.6-80.4 31.6-100.5 43.8-15.4 9.3-24.2 16.1-37.4 28.9-29.4 28.7-45.9 59-73.9 135.1-14.9 40.4-16.8 45-36.4 87.5-34.6 74.8-43.4 104-43.5 144.5-.1 18.6 1.1 28.5 5.8 49 5.8 24.9 12.9 43.6 34.6 90.5 19.6 42.3 26.4 58.8 41.9 101.9 21.9 60.8 35.8 88.4 57.7 114.7 18.2 21.9 46.2 42.3 78.5 57.3 13.2 6.2 41.6 17.5 67.7 27.1 39.5 14.6 52 19.7 86 35.5 66.1 30.7 94.7 40.1 131.7 43.2 16.9 1.4 33.8.3 53.8-3.6 28-5.5 51.6-14.4 105.5-39.6 29.6-13.8 49.8-22.1 93.5-38.4 47.2-17.5 67.9-26.7 88.7-39.3 35.6-21.6 58.9-47.2 79.7-87.4 8.6-16.6 17-36.6 29.6-70.9 14.1-38.5 22.1-57.8 37.5-91.5 29-63.1 37.2-86.1 42.6-119.2 2.4-14.5 2.4-43.7 0-57.8-5.4-31.7-15.8-60.7-41.1-114.5-12.2-25.9-21.7-48.3-30-70.8-21.4-57.8-31.5-82-42.3-101.7-13.3-24.3-30.1-45.6-46.4-59.2-17.4-14.5-28.8-21.8-52.3-33.2-20.4-10-33.4-15.4-75.6-31-30.9-11.5-45.7-17.6-75.6-31.2-54.7-25-64.1-28.9-85.8-35.8-7.1-2.3-19.5-5.6-27.5-7.3-13.2-2.7-16.5-3-37-3.4-16.7-.2-24.9.1-32 1.2zm-57.6 169.9c16.6 3.1 30.8 5.8 31.6 6 1.3.4 1.4 3.6.2 27.2l-1.2 26.8-7.3 37.5-7.3 37.4 7.7 42.9 7.6 43-4.8 28.1c-2.7 15.4-4.9 29.9-4.9 32.1.1 2.2 2.6 21.3 5.8 42.5l5.7 38.5-1.2 33.5c-1.2 32.6-1.3 34.1-5.4 54.8-2.2 11.8-3.9 21.5-3.7 21.7.1.1 22.1 4.5 48.8 9.8l48.5 9.4 57.5-1.8c31.6-1 70.1-2.5 85.5-3.3 15.4-.9 29.3-1.6 30.9-1.6h2.9l-.7 29.7c-.8 36.3-4.5 104.6-5.6 105.3-.5.3-24.4 2.2-53.2 4.4l-52.3 3.8-46-2.1c-43.2-2-52.5-2.1-154.2-1.5l-108.3.7v-8.9c0-4.9-.7-33.2-1.4-62.9-3.1-113.8-3.1-104.8.8-168l3.6-57-1.5-62.5c-.9-37.3-1.5-104.5-1.5-166.8V194H424.3l30.1 5.5zM339.3 875.1c4.7 1.3 10.6 6.3 12.3 10.6 2.4 5.7 1.8 13.3-1.5 18.6-8.9 13.9-29.6 10.8-35-5.2-1.7-5.1-1.4-8.2 1.5-13.9 4.5-9 13-12.8 22.7-10.1zm175.3 1c3.5 1.1 8.9 6.3 8 7.7-1 1.7-9.9 3.3-13.1 2.4-4.7-1.2-7.5-.3-9.6 3.1-4.7 7.6 4.6 16.6 11.7 11.2 1.8-1.3 1.7-1.4-1.8-1.5H506v-9h20v4.2c-.1 6.7-3.1 12.3-8.7 15.9-4.4 2.8-5.4 3-11.5 2.7-5.7-.3-7.3-.8-10.5-3.4-4.9-4-7.1-7.9-7.9-13.7-.6-3.8-.2-5.6 2-10.1 4.8-9.8 13.4-13 25.2-9.5zm288.2-.2c1.8.9 1.9 1.5 1 5-.9 3.7-1.2 3.9-3.5 3-3.4-1.3-6.9-1.1-8.1.4-1.6 1.9-.3 3.1 4.7 4.6 2.4.7 5.5 2.4 6.8 3.8 2.2 2.1 2.5 3.1 2 6.9-.6 5.3-2.7 8-8.2 10.5-5 2.3-11.2 2.4-16.5.3-2.2-.9-4-1.7-4-1.9 0-.1.5-1.7 1.1-3.6.6-1.9 1.2-3.9 1.4-4.6.3-.9 1.2-.8 3.4.3 4 2 9.2 2.7 11 1.5 2.4-1.6.5-3.8-4.3-5-9.5-2.4-14.2-10.5-9.5-16.5 3.4-4.4 9.4-6.8 15.6-6.2 2.8.2 6 .9 7.1 1.5zm-511.1 7.3l4.8 8.2.3-8.2.3-8.2H310v37h-13.5l-4.5-7.8-4.5-7.7-.3 7.7-.3 7.8H274v-37h13l4.7 8.2zm94.3-1.7v6.5h-7v24h-13.9l-.3-11.8-.3-11.7-3.7-.3-3.8-.3v-5.8c0-3.2.3-6.1.7-6.4.3-.4 6.9-.7 14.5-.7H386v6.5zm17.2-.3l.3 6.3 3.8.3 3.7.3v-13.2l6.8.3 6.7.3.3 18.2.2 18.3h-14v-12h-8v12h-13v-37h12.9l.3 6.2zm39.8 12.3V912h-15v-37h15v18.5zm21.7-10.3l4.8 8.3.3-8.3.3-8.2H483v37h-13.5l-4.5-7.8-4.5-7.7-.3 7.7-.3 7.8H447v-37h12.9l4.8 8.2zm105.7 1.6c1.6 5.1 3.1 9 3.5 8.7.3-.3 1.7-4.5 3.2-9.3l2.6-8.7 9.2-.3 9.1-.3V912h-13l-.1-8.8-.1-8.7-2.7 8.5-2.8 8.5-5.6.3-5.6.3-2.8-8.8-2.8-8.8-.3 8.7-.3 8.8H549v-37.1l9.2.3 9.2.3 3 9.3zm63-8.1c.3 1 2.3 8.8 4.6 17.3 2.2 8.5 4.3 16.1 4.5 16.7.3 1-1.4 1.3-6.5 1.3-6.6 0-7-.1-7.6-2.5-.6-2.2-1.1-2.5-5.5-2.5s-5.1.3-5.9 2.5c-.9 2.3-1.4 2.5-7.5 2.5-3.8 0-6.5-.4-6.5-1s2.1-8.9 4.7-18.5l4.6-17.5h10.3c8.9 0 10.3.2 10.8 1.7zm41.6 4.7v6.5l-3.2.3-3.3.3-.3 11.7-.3 11.8H654v-24h-7v-13h28v6.4zm33 .1v6.5h-7v24h-13.9l-.3-11.8-.3-11.7-3.7-.3-3.8-.3v-5.8c0-3.2.3-6.1.7-6.4.3-.4 6.9-.7 14.5-.7H708v6.5zm27-1.5v5h-5c-4.3 0-5 .3-5 2s.7 2 5 2h5v9h-5c-4.7 0-5 .2-5 2.5s.3 2.5 5 2.5h5v9h-23v-37h23v5zm30.2-2.7c6.1 4.2 7.2 12.8 2.2 18.2-1.6 1.7-2.2 3.1-1.6 3.8.5.7 2.3 3.8 4.1 6.9l3.2 5.8h-14.8l-2.9-5.3-2.9-5.2-.3 5.2-.3 5.3H739v-37.2l11.8.4c9.1.3 12.3.7 14.4 2.1z"/><path d="M355.5 209.1c11 7.2 22.7 14.8 25.9 16.9l6 3.9 12.5-11.9c6.9-6.5 14.8-14.1 17.6-16.9l4.9-5.1h-86.8l19.9 13.1zM333 240.6v43.6l18.8-18c23.2-22.4 34.7-34 34.1-34.5-1.3-1.2-52-34.7-52.4-34.7-.3 0-.5 19.6-.5 43.6zM410.1 214.1c-7.9 9.4-14.1 17.2-13.9 17.4.4.3 46.9-13.3 47.6-13.9.5-.6-17.8-20.6-18.8-20.6-.3 0-7 7.7-14.9 17.1zM435 204.7c4.1 4.3 8.3 8.8 9.4 10l2.1 2.2 12.5-3.5c6.9-1.9 15-4.2 18-5.1l5.5-1.6-25.5-4.8c-14-2.7-26.4-4.8-27.4-4.9-1.4 0 0 2.1 5.4 7.7zM466.7 213.3c-9.7 2.8-17.6 5.4-17.5 5.9.2.4 7 8.3 15.3 17.4l15 16.7 2.7-18.9c1.4-10.4 2.9-20.6 3.2-22.7.4-2 .3-3.7-.1-3.6-.5 0-8.8 2.4-18.6 5.2zM397.7 223.3c-4.3 4-7.7 7.5-7.7 7.9.1 2 2.4.2 9-7.2 4-4.4 7.1-8 6.9-8-.2 0-3.9 3.3-8.2 7.3zM421.3 226.3c-13.4 4-24.3 7.4-24.3 7.7 0 .3 17.9 5.4 39.8 11.4 21.8 6 40.3 11.1 41 11.3 3.4 1.3-.2-3.3-15.4-19.8-9.2-9.8-16.7-17.9-16.8-17.8 0 0-11 3.3-24.3 7.2zM374 246.7c-14.3 14.6-14.2 14.5 4.2-1.7 10.2-8.9 12.8-12 10-12-.4 0-6.8 6.2-14.2 13.7zM397.5 239.7c11.8 15.9 71 92.1 71.2 91.5.4-1.2 10.2-72.6 10-72.8-.1-.1-70.1-19-82.2-22.2-1.7-.5-1.5 0 1 3.5zM361.5 262c-15.4 13.7-27.9 25.2-27.8 25.7.1.5 7.8 15.7 17.1 33.7 11.5 22.2 17.2 32.2 17.5 31 1-3.5 21.8-114.6 21.5-114.9-.2-.1-12.9 10.9-28.3 24.5zM380.9 295.7c-9.9 50.4-11.4 58.8-10 59 2.5.4 95.6-20.3 95.6-21.2 0-1-72.7-96.4-73.5-96.4-.3-.1-5.8 26.3-12.1 58.6zM482.4 246.5c-.6 4.4-.8 8.4-.3 8.9 1.1 1.3 2.1-5 1.7-11.4l-.3-5.5-1.1 8zM480.6 260.2c-.8 2.4-3.8 25.9-3.4 26.3.2.2 1.5-5.7 2.9-13.1 1.4-7.4 2.2-13.7 1.7-14-.4-.3-1 .1-1.2.8zM333 350.5c0 32.3.2 58.6.4 58.4.2-.2 7.8-12.1 16.9-26.3l16.6-25.9-16.1-31.6c-8.9-17.4-16.5-32-16.9-32.6-.5-.5-.9 25.5-.9 58zM418.7 346.4c-25.1 5.7-46 10.5-46.3 10.8-.6.7 59.5 33.3 61.4 33.3.7 0 7.9-11 15.9-24.5 17.6-29.8 17.7-30 16.1-29.9-.7 0-21.9 4.7-47.1 10.3zM464.7 343.7c-1.9 3.2-8.5 14.6-14.7 25.3-6.2 10.7-11.8 20.5-12.6 21.6-1.2 2.1-.4 2.6 21.9 14.8 12.8 6.9 23.3 12.2 23.4 11.8.4-.9-13.5-78.3-14.1-78.9-.2-.2-1.9 2.2-3.9 5.4zM370.3 360.3c.2.7 6.8 20.3 14.7 43.7 7.9 23.4 14.6 42.9 15 43.3.4.4 8-11.4 16.9-26.3 9-14.9 16-27.4 15.7-27.7-1.7-1.7-62.7-34-62.3-33zM350.2 386.2c-9.4 14.5-17 26.3-16.9 26.4 1.2 1.1 64.1 35.3 64.4 35.1.5-.5-29.1-87.7-29.8-87.7-.3 0-8.3 11.8-17.7 26.2zM426.7 408.2c-18.7 31.9-23.6 40.3-23.3 40.5.4.5 78.6-28.1 78.6-28.7 0-.3-6.4-4-14.3-8.3-7.8-4.2-18.3-10-23.4-12.7l-9.2-5.1-8.4 14.3zM333.4 429.2c.3 8.4 1.1 33.3 1.7 55.3.6 22 1.3 40.2 1.4 40.3.4.4 61.5-73 61.5-73.8 0-.3-12.3-7.4-27.3-15.8-14.9-8.4-29.6-16.6-32.6-18.3l-5.4-3.1.7 15.4zM443.3 436.3c-21.6 7.8-39.3 14.4-39.3 14.7 0 .7 61 24.6 61.9 24.3.6-.2 17.1-51.6 16.8-52.5-.1-.3-17.9 5.7-39.4 13.5zM474.5 455.8c-3.2 10.3-6 19.2-6.2 19.8-.4 1 4.5 3 5.3 2.2.5-.5 7.4-40.1 7.1-40.5-.2-.1-3 8.2-6.2 18.5zM418.7 486.4l16.8 33.7 12.2-12.8c11.8-12.4 12.3-13.1 15-21 1.5-4.5 2.5-8.4 2.2-8.7-.2-.2-13.9-5.7-30.4-12.1-16.5-6.5-30.6-12-31.3-12.2-.7-.3 6.2 14.6 15.5 33.1zM400.7 456c-.7 1.8-12.6 78.4-12.3 78.7.1.1 6.8 1.1 14.9 2.1l14.8 1.8 7.9-8.2 7.9-8.3-10.1-20.8c-5.5-11.4-12.9-26.7-16.3-33.8-3.7-7.6-6.5-12.4-6.8-11.5zM367.2 491.7c-16.6 19.7-30 35.8-29.9 36 .4.4 47.9 6.4 48.3 6.1.6-.6 12.6-77 12.1-77.4-.2-.3-14 15.6-30.5 35.3zM465.7 483.3c-.9 2.8-1.5 5.2-1.3 5.4.6.7 7.7-7.8 7.1-8.6-.2-.5-1.3-1.1-2.3-1.3-1.5-.4-2.2.4-3.5 4.5zM460.6 512.2c-7 15.6-12.8 28.7-12.9 29.2-.2.8 37.3 19 37.9 18.4.3-.4-11.5-75-11.9-75.5-.2-.2-6.1 12.4-13.1 27.9zM466.3 490.2c-3.5 3.7-4.7 6.3-8.7 18.2-2.5 7.7-4.4 14.1-4.2 14.3.2.2 1.7-2.7 3.4-6.4 1.6-3.8 5.5-12.1 8.6-18.6 3-6.4 5.4-11.7 5.3-11.7-.2 0-2.1 1.9-4.4 4.2zM446.7 510.6l-10.6 11.6 4.6 9.2c2.5 5 4.7 8.6 4.9 8.1.2-.6 3.1-9.7 6.4-20.4 3.4-10.6 5.9-19.5 5.7-19.7-.1-.2-5.1 4.9-11 11.2zM427.5 531c-3.8 3.8-6.7 7.1-6.4 7.3.6.5 16.8 2.7 20.1 2.7h2.8l-4.2-8.5c-2.3-4.7-4.5-8.5-4.8-8.5-.3 0-3.7 3.1-7.5 7zM342.7 535.8c2.6 3.2 11.8 14.2 20.3 24.4 8.5 10.3 15.7 18.2 15.8 17.7.6-1.7 7-41.4 6.7-41.7-.4-.5-42.5-6.2-45.3-6.2-2.2 0-2 .4 2.5 5.8zM338.2 535c.2.8 4.7 16.7 9.8 35.2 5.2 18.6 9.7 33.8 10.1 33.8.6 0 14.5-15.7 18.7-21.1 1.1-1.4-1.3-4.7-17.4-24-10.2-12.3-19.3-23.1-20.1-23.9-1.4-1.3-1.5-1.3-1.1 0zM332.7 583.8c-1.5 26.2-3 49.2-3.3 51.1-.3 1.9-.1 3.2.4 3 .5-.2 6.6-7.3 13.6-15.8 8-9.7 12.5-16 12.2-17-.3-.9-4.7-16.5-9.7-34.6-5.1-18.2-9.5-33.3-9.8-33.7-.4-.4-1.9 20.7-3.4 47zM384.3 557.2c-1.7 11.2-3 20.4-2.8 20.6.1.1 8-8.1 17.5-18.3 9.5-10.3 17-18.8 16.8-19.1-.6-.5-22.2-3.4-25.8-3.4h-2.6l-3.1 20.2zM402.5 558.1c-9.3 10.1-16.3 18-15.5 17.7 2.1-.8 53.3-30.7 54.3-31.7.4-.4-3.4-1.4-8.5-2-5.1-.7-10.2-1.5-11.3-1.7-1.6-.4-5.7 3.5-19 17.7zM448.3 546.1c3.6 8.6 8.1 18.6 8.7 19.3.9.9 25-3.3 25-4.3 0-.5-28.3-14-33.3-16-.6-.2-.8.3-.4 1zM413.7 562.2c-15.2 8.9-27.6 16.2-27.5 16.4.2.1 32.8-5.5 37.5-6.6.1 0 3.9-5.3 8.4-11.8 4.5-6.4 8.6-12.3 9.2-13 .5-.6.8-1.2.6-1.2-.2.1-12.9 7.3-28.2 16.2zM435.7 558.1c-4.9 6.7-8.6 12.3-8.4 12.6.6.5 21.5-3.2 22.3-4 .7-.6-3.8-20.7-4.6-20.7-.3.1-4.5 5.5-9.3 12.1zM450.7 561c1.4 5.4 3.3 8.1 3.3 4.6 0-1.4-3.8-10.6-4.4-10.6-.2 0 .3 2.7 1.1 6zM471.1 565.6c-6.8 1.3-12.6 2.5-12.8 2.7-.1.2 4.6 11.3 10.6 24.7 10 22.2 11 24.1 11.5 20.9.3-1.9 1.5-12.4 2.6-23.4 1.1-11 2.2-21.7 2.5-23.8.6-4.4 1.8-4.3-14.4-1.1zM453.6 568.9c-.5.8 9.8 49 10.7 49.7.1.1 3 1.6 6.4 3.3 6.4 3.2 9.3 3.8 9.3 2.1 0-1.9-23.7-55.4-24.8-55.8-.5-.1-1.3.1-1.6.7zM440.5 571.1c-5.5 1-11.4 2.1-13.2 2.4-2.7.5-4.3 2.1-9.8 10.1-3.6 5.3-6.5 9.9-6.5 10.3 0 .7 48.8 23.1 50.1 23.1.6 0-9.6-47-10.3-47.5-.2-.1-4.8.6-10.3 1.6zM410 576.5c-3.6.7-10.9 2-16.3 3s-9.5 2.1-9 2.5c2 1.8 23.7 11 24.3 10.3 1-1.1 10.5-14.5 11.4-16.1.9-1.5-1.6-1.5-10.4.3zM379.6 586.2c-.9 3.7-8.5 58.2-8.2 58.5.1.1 6.8-9.1 14.8-20.5l14.6-20.7-4.7-4.8c-2.5-2.7-7.2-7.1-10.3-9.8-5.5-4.8-5.7-4.9-6.2-2.7zM386 586.3c.8.8 4.8 4.4 8.8 8.1l7.2 6.7 2.6-3.1c1.5-1.7 2.5-3.2 2.3-3.4-.5-.4-16.4-7.4-19.9-8.8-2.2-.8-2.3-.7-1 .5zM367.1 597.2l-8.4 9.9 1.2 5.2c.6 2.9 1.5 5.8 2 6.5.5.9 3.1-4.3 7.4-15 3.6-8.9 6.5-16.3 6.4-16.4-.1-.1-4 4.3-8.6 9.8zM369.6 607.9c-6.5 15.4-6.7 16.1-5.6 20.3 2.5 9.6 4.2 14.9 4.6 14.6.6-.6 8.6-49.9 8.1-50.4-.2-.2-3.4 6.8-7.1 15.5zM406.6 599.2l-2.5 3.3 2.7 2.8c1.5 1.6 9.3 9.2 17.4 16.9l14.7 13.9 12.7-2.5c7-1.4 12.8-2.7 13-2.9.1-.1-.3-2.6-.9-5.4l-1.1-5.3-23.5-10.6c-13-5.9-25-11.3-26.8-12-3.1-1.3-3.3-1.3-5.7 1.8zM387.1 626.2c-8.2 11.6-14.9 21.3-14.8 21.5.4.4 59.9-10.6 62-11.5 1.5-.6-1.1-3.4-14.2-15.7-8.9-8.2-16.5-15.1-17-15.3-.5-.2-7.7 9.3-16 21zM483.2 608.1c-.1 1.4-.5 5.5-.8 9-.4 4.9-.3 6 .6 4.7.6-1.1.9-4.8.7-9-.1-4-.4-6.1-.5-4.7zM347 620.7c-4.7 5.8-10.4 12.9-12.7 15.8l-4.3 5.3 6.8 1.2c3.7.6 8.7 1.4 11.2 1.7l4.5.5 4.3-10.5 4.3-10.6-2.1-7c-1.1-3.9-2.4-7.1-2.8-7-.4 0-4.5 4.8-9.2 10.6zM465.5 625.2c.4 2.4.9 4.6 1.1 4.9.4.7 11.4-1.2 11.4-2.1 0-.3-3-2-6.6-3.8l-6.6-3.3.7 4.3zM357.6 636.6c-2 4.8-3.5 8.8-3.4 8.9.5.4 13.2 2.5 13.4 2.2.4-.4-5-18.5-5.8-19.2-.3-.3-2.2 3.3-4.2 8.1zM480.8 631c-.4.8-.9 4.2-1.1 7.5l-.6 6 1.5-5c1.3-4.8 1.5-11.8.2-8.5zM471.2 631.9c-1.8.3-3.3 1-3.4 1.4-.3 2.1 6.7 30.6 7.3 29.5.3-.7 1.2-6.9 1.8-13.8.7-6.9 1.4-13.7 1.7-15.3.6-3-.2-3.2-7.4-1.8zM451.5 635.3c-5.5 1.1-10.1 2.1-10.3 2.2-.2.2 5.9 6.2 24 23.5 4.3 4 7.9 7.1 8.1 6.9.2-.2-1.5-8.2-3.6-17.7-4.6-19.8-2.6-18.1-18.2-14.9zM405.5 643.4c-15.4 2.9-28.6 5.4-29.3 5.7-.7.2 20.5 5 47 10.6s48.4 10.1 48.5 9.9c.2-.1-7.2-7.3-16.4-15.9-13-12.1-17.3-15.7-19.3-15.6-1.4.1-15.1 2.5-30.5 5.3zM330 644.6c0 1 10.2 23.8 11 24.7.7.8 1.9-2 8-17.4l1.9-4.7-8.9-1.6c-9.5-1.7-12-1.9-12-1zM348.1 660.4c-4.5 11.2-5.2 13.8-4.4 16.2.5 1.6 1.3 2.8 1.7 2.7.8-.2 21.5-28.5 21.6-29.4 0-.4-2.5-1-5.7-1.4-3.1-.4-6.1-.9-6.8-1.1-.7-.3-3.2 4.7-6.4 13zM329.1 665.1c.1 9 .4 20.2.7 24.9l.7 8.4 4.9-12.2 4.8-12.3-5.2-12.2c-2.9-6.7-5.4-12.4-5.6-12.6-.2-.2-.4 7-.3 16zM371 652.7c-.1 1 2.5 26.7 5.7 57.2l5.7 55.5 45.3-46c24.9-25.2 45.3-46.1 45.3-46.4 0-.5-99.5-22.1-101.2-22-.5 0-.8.8-.8 1.7zM357.4 667.5l-11.1 14.8 16.6 38.7c9.1 21.4 16.7 38.7 16.9 38.6.2-.3-10.7-104.5-11.1-106-.2-.5-5.3 5.8-11.3 13.9zM477.1 675.7c0 1.6 2.4 27.3 5.2 57.3l5.2 54.4 41.4-47.3c22.7-26 41.1-47.5 40.8-47.8-.3-.2-20.3-4.5-44.4-9.3-24.1-4.9-44.8-9.2-46-9.5-2-.5-2.3-.2-2.2 2.2zM429 720.5c-25 25-45.2 45.6-45 45.8 1 .7 101 22.1 101.4 21.6.5-.5-10-111.8-10.6-112.4-.2-.2-20.8 20-45.8 45zM340.2 679c-.5 1.4-2.1 5.4-3.6 8.9-1.4 3.5-2.5 6.6-2.3 6.8.2.1 2.5-2.6 5.1-6.2 4.5-6.2 4.7-6.5 3.2-9.2l-1.4-2.8-1 2.5zM337.1 694.1c-7.2 10.1-7.2 10.1-5.3 12.3 1 1.1 11.4 13.5 23.1 27.4 11.8 13.9 21.5 25.1 21.7 24.9.3-.3-31.2-73.6-32-74.4-.1-.2-3.5 4.3-7.5 9.8zM721.3 687.3c-9 .5-16.3 1.2-16.3 1.6 0 .3 3.8 4.5 8.3 9.3l8.2 8.7 12.9-10.5 12.8-10.4-4.8.2c-2.7 0-12.2.6-21.1 1.1zM736.2 697.1c-6.8 5.6-12.2 10.7-12 11.4.2.7 5.3 6.5 11.5 12.9l11.1 11.7.6-3.8c.6-4.6 2-42.3 1.4-42.3-.1 0-5.8 4.6-12.6 10.1zM637.2 690.6c-33.2 1.2-60.5 2.4-60.7 2.6-.4.4 79.9 64.1 81.2 64.5.8.2 40.5-65.8 41.1-68.4.2-.7 0-1.2-.5-1.2-.4.1-28 1.2-61.1 2.5zM682.2 722.2c-10.6 17.6-19.1 32.2-19 32.3.2.2 9.8-7.6 21.3-17.2 11.6-9.6 22-18.3 23.2-19.2l2.2-1.8-3.9-12.8c-2.1-7-4.1-12.9-4.3-13.1-.1-.2-9 14.1-19.5 31.8zM707.6 702.5c2 6.1 3.8 11.2 4 11.4.4.4 8.3-5.2 8.4-5.9 0-.3-3.6-4.1-8-8.5l-8-8 3.6 11zM571.6 699.2c-3.6 12.5-29.8 118.9-29.4 119.3.6.7 113.2-58 113.4-59.1.2-.7-79.4-64.2-81.7-65.2-.4-.2-1.4 2.1-2.3 5zM529.2 742.8c-22.2 25.4-40.3 46.4-40.3 46.8 0 .9 49.4 30.5 50 29.9.7-.8 31.1-120.9 30.8-121.9-.2-.4-18.4 19.9-40.5 45.2zM330 710.2c0 7.6 3.1 109.2 3.3 109.5.2.1 4.3-4.4 9.2-10 5-5.6 15.4-17.5 23.3-26.4l14.3-16.3-24.2-29.2c-13.3-16.1-24.6-29.7-25.1-30.3-.4-.5-.8.7-.8 2.7zM716.4 713.5l-4.2 3.5 4.5 12.7c2.4 7 4.6 12.9 4.7 13.1.2.1 6-1.2 13-2.9l12.7-3.2-2.3-2.6c-3.9-4.6-23.2-24.1-23.8-24.1-.3 0-2.4 1.6-4.6 3.5zM686.2 738c-12.9 10.5-22.9 19-22.4 19 1.3 0 54.6-13.1 55-13.5.8-.7-7.7-24.5-8.6-24.5-.4 0-11.2 8.6-24 19zM733.5 741.8c-6 1.4-11.1 2.6-11.3 2.8-.5.3 2 9.4 2.8 9.9.4.3 4.8-2.7 9.6-6.6 9-7.1 11.2-9 10.4-8.8-.3.1-5.4 1.3-11.5 2.7zM736.2 749.1c-5.6 4.4-10.2 8.3-10.2 8.6 0 .3 3.9 12.7 8.7 27.6 8.4 25.8 8.8 26.8 9.4 22.6.9-5.5 3.3-65.8 2.7-66.4-.2-.3-5 3.2-10.6 7.6zM690 752.7c-14.6 3.6-26.9 6.9-27.3 7.3-.6.5 22.9 17.9 29.1 21.4.7.5 6.9-4 16.6-11.9l15.4-12.7-1.7-5.1c-1.2-3.6-2.4-5.3-3.7-5.4-1-.1-13.8 2.7-28.4 6.4zM710.5 770.1c-7.1 6-13.6 11.6-14.3 12.3-1.2 1.1 2.5 4 22.4 17.4 13.1 8.9 24 16 24.2 15.7.5-.5-18.1-56.5-18.8-56.4-.3 0-6.3 5-13.5 11zM659 761.3c0 .3-3.6 14.1-8 30.7-4.5 16.6-8 30.4-7.8 30.5.4.3 46.5-37.7 47-38.7.1-.4-4-3.7-9.2-7.4-5.2-3.6-12.3-8.6-15.7-11.1-3.5-2.4-6.3-4.2-6.3-4zM600.2 791.2c-30.9 16-56.1 29.2-56 29.4.3.2 17.2.9 89.2 3.6l6.9.3 4.2-16c8.2-30.7 12.3-46.5 12.2-46.5-.1 0-25.5 13.1-56.5 29.2zM359.4 793.7c-12 13.6-22.5 25.6-23.3 26.6-1.3 1.6 1 1.7 44.8 1.7h46l-22-25.8c-12.2-14.1-22.5-26.1-22.9-26.5-.4-.4-10.6 10.4-22.6 24zM386.1 770.9c3.4 4.9 42.5 50 43.3 50 .9.1 49.7-27.2 52.4-29.2.7-.5 1.1-1.1.9-1.3-.1-.1-21.2-4.8-46.7-10.3-25.6-5.6-47.6-10.3-48.9-10.6-2.3-.6-2.3-.5-1 1.4zM668.9 804.1c-12.9 10.5-23.5 19.4-23.7 19.8-.2.5 89.6-5.2 94.8-6.1 1.1-.2-7.1-6.3-22.4-16.6-13.2-8.9-24.4-16.2-24.7-16.2-.3 0-11.1 8.6-24 19.1zM460.2 806.3l-26.3 15.2 13.8.2c7.6.2 30.5 0 50.8-.5l37-.7-24.2-14.8c-13.2-8.1-24.3-14.7-24.5-14.7-.1.1-12.1 6.9-26.6 15.3zM328.8 889c-2.4 2.5-2.9 3.6-2.4 5.8 2.1 8.9 14.6 7.8 14.6-1.2 0-2.5-.7-4-2.6-5.5-3.6-2.9-6-2.6-9.6.9zM621.1 893.3c-1.4 6-1.5 5.7 1.5 5.7 2.5 0 2.6-.2 1.9-3.8-1.2-6.3-2.1-6.8-3.4-1.9zM752 887.6c0 2.1.4 2.5 2.3 2.2 1.4-.2 2.3-1.1 2.5-2.6.3-1.8-.1-2.2-2.2-2.2s-2.6.5-2.6 2.6z"/></svg>